<svg width="320" height="50" viewBox="0 0 320 50" fill="none" xmlns="http://www.w3.org/2000/svg">
<mask id="mask0" mask-type="alpha" maskUnits="userSpaceOnUse" x="0" y="0" width="320" height="50">
<path d="M0 0H320V50H0V0Z" fill="#D5E6FF"/>
</mask>
<g mask="url(#mask0)">
<path d="M0 0H320V50H0V0Z" fill="#E4EFFF"/>
<path d="M34.5217 27.2247C31.5265 13.0338 25.3716 25.1446 16.5659 34.7037C2.53183 49.9387 14.1651 58.726 24.9045 52.9587C27.3988 51.6193 37.5169 41.4156 34.5217 27.2247Z" fill="#DBE8FC"/>
<path d="M154.791 24.9625C150.657 49.3252 168.024 34.3175 188.002 25.0931C219.842 10.3913 206.868 -11.1873 186.194 -9.22511C181.392 -8.76938 158.925 0.599895 154.791 24.9625Z" fill="#D5E6FF"/>
<path d="M217.836 63.7437C191.733 64.5297 209.88 51.3771 222.331 35.3392C242.176 9.7788 262.976 23.3036 258.036 40.7555C256.889 44.8087 243.939 62.9577 217.836 63.7437Z" fill="#DBE8FC"/>
<path d="M99.0193 28.2877C106.277 53.9406 88.7485 39.2362 69.7764 30.8876C39.5395 17.5817 47.769 -6.37241 66.2765 -5.81349C70.5749 -5.68369 91.7613 2.63486 99.0193 28.2877Z" fill="#D5E6FF"/>
<path d="M306.685 17.6538C322.556 0.652432 319.352 20.3137 321.51 38.1672C324.948 66.6214 303.512 71.3656 295.768 57.3845C293.969 54.1374 290.813 34.6551 306.685 17.6538Z" fill="#D5E6FF"/>
<path d="M263.872 6.12692C256.068 0.761565 264.179 0.86547 271.238 -1.08047C282.488 -4.18176 285.692 4.164 280.529 8.12581C279.33 9.04595 271.675 11.4923 263.872 6.12692Z" fill="#D5E6FF"/>
</g>
</svg>
