<svg width="320" height="343" viewBox="0 0 320 343" fill="none" xmlns="http://www.w3.org/2000/svg">
<path d="M323.161 7.98902C375.803 -10.7502 347.706 27.5249 333.156 67.8333C309.965 132.075 258.476 118.666 256.771 80.465C256.375 71.5928 270.519 26.7282 323.161 7.98902Z" fill="#CEDFF7" fill-opacity="0.4"/>
<path d="M58.8766 111.755C45.0519 47.417 16.6432 102.325 -24.0005 145.663C-88.7765 214.735 -35.0815 254.575 14.4875 228.427C26.0001 222.354 72.7012 176.093 58.8766 111.755Z" fill="#BFD9FF" fill-opacity="0.4"/>
<path d="M266.337 330.328C201.03 358.64 233.472 307.594 248.524 255.12C272.514 171.49 339.1 184.137 344.529 232.543C345.79 243.786 331.644 302.016 266.337 330.328Z" fill="#BFD9FF" fill-opacity="0.4"/>
</svg>
