<svg width="1440" height="711" viewBox="0 0 1440 711" fill="none" xmlns="http://www.w3.org/2000/svg">
<mask id="mask0" mask-type="alpha" maskUnits="userSpaceOnUse" x="0" y="0" width="1440" height="711">
<rect width="1440" height="711" fill="#C4C4C4"/>
</mask>
<g mask="url(#mask0)">
<path d="M46.9998 -266.412C-72.3396 24.9894 -19.8499 317.863 411 275.001C841.85 232.139 787.473 393.952 1013 525.001C1161 611.001 1336.19 512.642 1293 385.001C1259.11 207.82 1350.47 237.841 1425.36 136.906C1482.55 59.8325 1509.81 -82.9345 1472.35 -266.412C1434.9 -449.889 1447.98 -327.571 1345.94 -408.18C1195.91 -526.706 688.124 -670.769 747.854 -465.903C807.584 -261.036 166.339 -557.813 46.9998 -266.412Z" fill="#E4EFFF"/>
<path d="M653.88 223.225C629.298 317.223 702.485 264.423 783.91 235.174C913.683 188.557 870.298 99.5721 788.648 100.138C769.684 100.269 678.461 129.228 653.88 223.225Z" fill="#BFD9FF" fill-opacity="0.4"/>
<path d="M408.73 380.648C318.608 413.59 397.704 433.377 461.124 470.703C562.202 530.191 615.556 456.022 575.932 403.662C566.729 391.501 498.852 347.707 408.73 380.648Z" fill="#E4EFFF"/>
<path d="M469.375 556.04C503.23 531.531 467.733 532.633 436.721 524.523C387.296 511.598 373.746 549.017 396.57 566.254C401.871 570.258 435.519 580.549 469.375 556.04Z" fill="#E4EFFF"/>
<path d="M1216.41 222.195C1055.81 212.413 1174.51 141.868 1259.88 50.4345C1395.94 -95.288 1515.99 -0.669238 1475.92 103.643C1466.61 127.87 1377 231.977 1216.41 222.195Z" fill="#DBE8FC"/>
<path d="M224.844 121.117C281.379 236.758 185.458 181.964 88.1422 158.607C-66.9553 121.38 -48.4469 0.496902 39.9653 -12.7567C60.4993 -15.8349 168.309 5.47581 224.844 121.117Z" fill="#DBE8FC"/>
</g>
</svg>
