<svg width="122" height="367" viewBox="0 0 122 367" fill="none" xmlns="http://www.w3.org/2000/svg">
<path d="M108.334 333.495L103.369 322.59C97.8127 318.098 87.1259 311.473 88.8287 320.906C90.5315 330.34 88.3569 337.663 87.0567 340.145L108.334 333.495Z" fill="#EACBAF"/>
<path d="M112.722 340.929C114.299 337.919 111.341 331.229 105.384 329.684C104.878 329.552 104.39 329.893 104.193 330.377C101.276 337.553 86.4575 333.005 83.1981 336.144C78.4105 340.755 67.4177 350.419 61.6552 356.891C55.8928 363.364 71.9399 359.905 88.5187 353.166C105.097 346.427 109.797 346.515 112.722 340.929Z" fill="#442DA4"/>
<path d="M99.0984 351.262L97.6122 339.373C93.649 333.428 85.4254 323.916 84.2364 333.428C83.0475 342.939 78.7871 349.28 76.8055 351.262H99.0984Z" fill="#F8DABE"/>
<path d="M44.1096 217.504L55.9992 169.946L103.557 175.891C87.7046 195.707 57.6395 237.118 70.8611 253.173C91.6678 278.438 92.6586 308.658 97.6126 323.024L85.723 331.941L51.5406 273.98C33.7062 250.201 34.2016 250.201 44.1096 217.504Z" fill="#6B9EC1"/>
<g filter="url(#filter0_d)">
<path d="M59.2264 169.946H111.243C117.188 181.836 99.3536 205.615 105.298 253.173C109.135 264.072 113.316 295.381 99.3536 333.428H81.5193C81.6448 329.412 81.783 324.226 81.9001 318.566C82.2453 301.883 82.407 281.082 81.5193 273.98C81.0355 270.109 78.4023 257.248 74.9818 241.284C69.9969 218.018 63.3396 188.162 59.2264 169.946Z" fill="#87B4D4"/>
</g>
<rect width="19.1126" height="7.55185" rx="0.5" transform="matrix(-0.995206 -0.0977988 -0.0977988 0.995206 99.9146 332.253)" fill="#B7CEDD"/>
<path d="M103.558 361.664C105.961 359.261 105.134 351.993 99.9089 348.741C99.4653 348.465 98.8978 348.645 98.5656 349.048C93.641 355.027 80.8539 346.265 76.8065 348.288C70.8613 351.261 57.486 357.206 50.055 361.664C42.6241 366.123 58.9722 367.609 76.8065 366.123C94.6409 364.637 99.0998 366.123 103.558 361.664Z" fill="#6B48FF"/>
<rect width="23.7791" height="2.97239" rx="1.48619" transform="matrix(-0.741456 -0.671001 -0.671001 0.741456 19.6257 82.0063)" fill="#265FB1"/>
<path fill-rule="evenodd" clip-rule="evenodd" d="M10.3399 70.4428C9.96943 69.7018 9.06842 69.4015 8.32745 69.772C7.86971 70.0008 7.30983 70.3579 6.81331 70.7951C6.35244 71.2009 5.75832 71.8381 5.52279 72.6625C5.48522 72.794 5.46308 72.8513 5.43113 72.9341C5.40133 73.0112 5.36299 73.1105 5.29564 73.3127C5.18891 73.633 5.0832 74.0409 5.0832 74.5504C5.0832 74.9804 5.20916 75.3625 5.31209 75.6193C5.42272 75.8955 5.56198 76.1591 5.68667 76.3791C5.79365 76.5679 5.90806 76.7559 6.00241 76.9109C6.01821 76.9369 6.03345 76.9619 6.048 76.9859C6.16168 77.1731 6.22713 77.2853 6.26332 77.3577C7.19334 79.2177 8.19392 80.9647 9.476 82.6517C10.1426 83.5287 11.0389 84.1793 11.7356 84.6849C11.7693 84.7094 11.8025 84.7335 11.8352 84.7572C12.6191 85.3273 13.1723 85.7503 13.5462 86.262C14.6615 87.7882 16.2229 89.2434 17.5056 90.3658C18.86 91.5508 20.1336 92.5611 21.8141 93.5063C22.1055 93.6703 22.3598 93.8346 22.6527 94.0238C22.7297 94.0736 22.8095 94.1251 22.8932 94.1787C23.2796 94.4263 23.722 94.6994 24.2536 94.9495C24.3807 95.0093 24.4899 95.0589 24.5914 95.105C24.7532 95.1785 24.8953 95.243 25.059 95.3258C25.3075 95.4516 25.4394 95.5413 25.4989 95.5948C26.4718 96.4705 27.0509 97.2398 27.5185 98.4479C27.7144 98.9538 28.1073 99.7661 28.7786 100.279C29.1527 100.566 29.723 100.838 30.4248 100.746C31.1124 100.656 31.6264 100.256 31.9821 99.8351C32.1659 99.618 32.3714 99.3744 32.5309 99.1411C32.6907 98.9071 32.9059 98.5421 32.9674 98.068C33.0349 97.5477 32.8935 97.1074 32.7179 96.7732C32.5614 96.4754 32.3471 96.205 32.1649 95.9863C31.5967 95.3045 30.8308 94.7919 30.2675 94.4149C30.2382 94.3953 30.2094 94.376 30.1813 94.3571C29.5254 93.9171 29.1033 93.617 28.8295 93.2823C27.657 91.8493 25.6283 90.5055 24.2171 89.7215C22.8851 88.9815 21.5122 88.0909 20.5655 87.1442C20.1585 86.7372 19.703 86.4096 19.3355 86.1526C19.2652 86.1034 19.1984 86.057 19.1349 86.0128C18.8339 85.8035 18.6047 85.6441 18.3993 85.4704C18.1025 85.2192 17.6735 84.9129 17.3098 84.6533C17.1266 84.5225 16.96 84.4035 16.8351 84.3093C16.3328 83.9305 16.0785 83.6675 15.9756 83.4822C15.5549 82.725 15.0106 82.0978 14.5302 81.5754C14.397 81.4305 14.271 81.2959 14.1511 81.1677C13.8062 80.7991 13.5113 80.4839 13.2373 80.1316C13.0463 79.8861 12.8647 79.6702 12.7218 79.5004C12.683 79.4543 12.647 79.4116 12.6145 79.3726C12.4481 79.1729 12.3665 79.0644 12.3123 78.9747C12.2559 78.8813 12.1702 78.7357 12.1702 78.173C12.1702 77.182 12.8767 76.1675 13.9631 75.6026C14.6981 75.2204 14.9841 74.3147 14.6019 73.5797C14.2197 72.8447 13.314 72.5587 12.579 72.9409C11.1473 73.6855 9.82013 75.0525 9.35021 76.8055C9.21464 76.5465 9.08033 76.2835 8.9466 76.016C8.84635 75.8155 8.71586 75.5994 8.61238 75.429C8.59497 75.4003 8.57784 75.3721 8.56097 75.3444C8.46568 75.1877 8.37876 75.0449 8.29683 74.9003C8.20019 74.7297 8.13518 74.5991 8.09687 74.5035C8.09317 74.4943 8.08997 74.486 8.08723 74.4787C8.09373 74.4231 8.10926 74.3587 8.14186 74.2608C8.1632 74.1968 8.18445 74.1392 8.21422 74.0584C8.22542 74.0281 8.23781 73.9945 8.25187 73.956C8.29748 73.8313 8.35377 73.6732 8.40527 73.494C8.40723 73.4899 8.42442 73.4504 8.48005 73.3765C8.55045 73.283 8.6557 73.1701 8.79588 73.0466C9.08157 72.7951 9.42194 72.5788 9.66909 72.4553C10.4101 72.0848 10.7104 71.1838 10.3399 70.4428ZM8.07216 74.4331C8.07213 74.4331 8.07236 74.4341 8.07293 74.4362C8.07247 74.4342 8.07219 74.4331 8.07216 74.4331Z" fill="#F8DABE"/>
<path fill-rule="evenodd" clip-rule="evenodd" d="M7.61824 70.3578C7.69054 70.3222 7.76661 70.2896 7.84656 70.2606C7.86579 70.2536 7.88494 70.2466 7.90394 70.2397C8.06793 70.18 8.22126 70.1242 8.32715 70.091L8.32715 70.091C8.32819 70.0906 8.55252 70.012 8.80874 70.0046C8.89043 70.0022 9.06439 70.0028 9.27343 70.0627C9.48867 70.1244 9.85874 70.2858 10.1212 70.6886C10.3894 71.1002 10.3856 71.5176 10.3442 71.7623C10.3055 71.9915 10.2225 72.1576 10.1825 72.2316C10.1033 72.3784 10.0151 72.4819 9.99228 72.5087L9.99085 72.5104C9.95682 72.5503 9.92562 72.5833 9.91161 72.598C9.88384 72.6272 9.87631 72.6349 9.87127 72.64C9.8672 72.6441 9.86476 72.6465 9.85454 72.6575C9.70298 72.9043 9.52848 73.0926 9.3708 73.2329C9.36718 73.3172 9.36322 73.3993 9.35945 73.4775C9.35904 73.4862 9.35862 73.4948 9.35821 73.5034C9.35793 73.509 9.35766 73.5147 9.35739 73.5204C9.98129 72.8291 10.8571 72.2138 12.1572 72.2138C12.9857 72.2138 13.6572 72.8853 13.6572 73.7138C13.6572 74.5422 12.9857 75.2138 12.1572 75.2138C11.9976 75.2138 11.9123 75.2494 11.8276 75.3069C11.7111 75.3859 11.5547 75.5387 11.331 75.8494C11.2247 75.997 11.1391 76.1302 11.0375 76.2881C10.9782 76.3803 10.9136 76.4808 10.8362 76.5976C10.6803 76.833 10.4092 77.2366 10.0502 77.5299C9.8548 77.6895 9.54477 77.8922 9.12649 77.9677C9.07569 77.9769 9.02508 77.9839 8.97475 77.9887C8.85217 78.1268 8.68921 78.2601 8.47327 78.3606C7.88655 78.6336 7.3646 78.456 7.14047 78.3486C6.76307 78.1678 6.53015 77.8679 6.46501 77.7841C6.46339 77.782 6.46187 77.78 6.46045 77.7782C6.3513 77.638 6.25409 77.486 6.17361 77.3493C6.01086 77.0727 5.85089 76.7459 5.72778 76.4414C5.66586 76.2883 5.60523 76.121 5.55779 75.9541C5.5179 75.8137 5.45555 75.5673 5.45555 75.2929C5.45555 74.4332 5.60677 73.7484 5.77834 73.1432C5.84313 72.9147 5.90271 72.7207 5.95836 72.5394C6.0607 72.2061 6.14976 71.916 6.23353 71.5344C6.38147 70.8605 6.96112 70.3927 7.61824 70.3578ZM9.57963 75.3204C9.57965 75.3203 9.57851 75.3187 9.57618 75.3157C9.57845 75.319 9.57962 75.3204 9.57963 75.3204ZM9.84086 72.6726C9.84088 72.6726 9.84148 72.6719 9.84256 72.6706C9.84137 72.672 9.84083 72.6726 9.84086 72.6726ZM6.38911 76.9033C6.38967 76.9039 6.38939 76.8934 6.38663 76.8697C6.38717 76.8908 6.38856 76.9026 6.38911 76.9033Z" fill="#F8DABE"/>
<path d="M92.8567 114.758C99.5512 105.935 108.687 87.3761 91.6761 83.7197C88.4192 83.0197 82.8274 82.4228 70.1401 98.6808C69.8339 99.0731 65.5474 102.816 65.2377 103.224C62.2905 106.789 55.8384 114.077 53.6071 114.717C53.3555 114.789 53.1806 114.901 53.0627 115.028C52.7937 113.367 51.421 109.074 46.4752 99.1915C42.6327 91.5132 38.3566 92.3158 35.7927 94.0969C33.6458 95.9676 28.9869 100.19 27.5263 102.115C25.7005 104.521 38.5116 124.066 41.1142 130.223C43.1963 135.148 50.9628 135.138 54.5858 134.517C66.2831 133.673 84.9736 120.992 92.8567 114.758Z" fill="#606A78"/>
<g filter="url(#filter1_i)">
<path d="M108.798 143.852C107.609 149.797 116.229 169.117 120.687 178.034C127.821 188.735 79.0737 182.493 53.8084 178.034C45.4857 175.656 44.3958 167.135 44.8912 163.172C56.7808 142.366 61.2394 114.128 61.2394 105.211C61.2394 96.2935 83.3435 65.5605 95.4217 56.1663C108.797 45.7629 110.284 54.6801 111.77 57.6525C112.959 60.0304 114.247 63.5973 114.742 65.0835C123.66 82.9178 110.284 136.421 108.798 143.852Z" fill="#6B48FF"/>
</g>
<g filter="url(#filter2_i)">
<path d="M92.4493 17.5718C94.8272 25.8945 103.843 43.7579 107.311 51.1889C99.8803 48.2165 77.5874 76.4542 80.5598 70.5094C81.3029 69.0232 85.0184 61.5923 85.0184 57.1337C85.0184 52.6751 82.046 51.7543 77.5874 54.7266C76.1631 55.529 72.8316 56.242 71.6426 52.6751C70.1564 48.2165 68.1748 46.2349 67.184 45.2441C65.0941 43.1542 62.7254 46.165 61.2393 43.7579C61.2393 42.2717 62.23 39.2994 62.7254 37.8132C64.2116 33.3546 62.7254 34.8408 61.2393 31.8684C60.0503 29.4905 61.2393 20.0488 62.7254 16.0856C71.6426 13.1132 90.0714 9.2491 92.4493 17.5718Z" fill="#F8DABE"/>
</g>
<path d="M84.9479 57.1338C76.1396 70.0046 59.1102 97.3551 61.4591 103.791C64.3952 111.835 86.4159 63.5692 84.9479 57.1338Z" fill="#1A4D96"/>
<g filter="url(#filter3_i)">
<path d="M101.367 39.299C103.745 39.299 103.348 30.3818 102.853 25.9233C111.77 2.14414 87.9908 -3.80061 79.0737 2.14416C71.9399 6.89999 65.2025 9.57513 62.7255 9.57513C57.7715 10.0705 52.3221 11.0613 52.3221 15.5199C52.3221 23.098 64.2117 19.9785 70.1565 21.4647C76.1013 22.9509 77.5875 27.4095 82.046 27.4095C86.5046 27.4095 83.5322 21.4647 85.0184 19.9785C86.5046 18.4923 93.9356 19.9785 92.4494 25.9233C90.9632 31.868 98.3943 39.299 101.367 39.299Z" fill="#6B48FF"/>
</g>
<g filter="url(#filter4_d)">
<path d="M27.7623 70.3704C32.2209 71.8566 38.1657 82.7553 42.6243 89.6909C39.6519 92.1679 33.7071 100.986 33.7071 98.6081C33.7071 96.2302 25.7807 90.1863 20.3314 86.7185C18.8452 84.7369 16.17 83.1517 17.359 80.7738C18.5479 78.3959 22.8083 74.829 24.7899 74.829L15.8728 74.829C15.3774 73.8382 12.9004 73.3428 15.8728 71.8566C17.2021 71.1919 25.7684 69.7057 27.7623 70.3704Z" fill="#F8DABE"/>
</g>
<path d="M108.797 100.233C114.247 89.3346 120.092 67.5371 99.8802 67.5371C96.0104 67.5371 89.514 68.1797 79.0737 88.3438C78.8218 88.8304 74.8672 93.7843 74.6151 94.2886C72.1381 98.7472 66.5897 107.962 64.2117 109.151C63.9436 109.285 63.7722 109.443 63.6692 109.605C62.9584 107.903 60.3515 103.656 52.3222 94.2886C46.0839 87.0106 41.4234 88.8392 38.9464 91.3162C36.9649 93.7932 32.7044 99.3417 31.5155 101.72C30.0293 104.692 49.3498 122.526 53.8084 128.471C57.3753 133.227 66.1933 131.443 70.1565 129.957C83.235 126.39 101.366 108.655 108.797 100.233Z" fill="#442DA4"/>
<defs>
<filter id="filter0_d" x="55.2263" y="169.946" width="61.248" height="171.481" filterUnits="userSpaceOnUse" color-interpolation-filters="sRGB">
<feFlood flood-opacity="0" result="BackgroundImageFix"/>
<feColorMatrix in="SourceAlpha" type="matrix" values="0 0 0 0 0 0 0 0 0 0 0 0 0 0 0 0 0 0 127 0"/>
<feOffset dy="4"/>
<feGaussianBlur stdDeviation="2"/>
<feColorMatrix type="matrix" values="0 0 0 0 0 0 0 0 0 0 0 0 0 0 0 0 0 0 0.25 0"/>
<feBlend mode="normal" in2="BackgroundImageFix" result="effect1_dropShadow"/>
<feBlend mode="normal" in="SourceGraphic" in2="effect1_dropShadow" result="shape"/>
</filter>
<filter id="filter1_i" x="44.7908" y="51.2598" width="76.6016" height="136.683" filterUnits="userSpaceOnUse" color-interpolation-filters="sRGB">
<feFlood flood-opacity="0" result="BackgroundImageFix"/>
<feBlend mode="normal" in="SourceGraphic" in2="BackgroundImageFix" result="shape"/>
<feColorMatrix in="SourceAlpha" type="matrix" values="0 0 0 0 0 0 0 0 0 0 0 0 0 0 0 0 0 0 127 0" result="hardAlpha"/>
<feOffset dy="4"/>
<feGaussianBlur stdDeviation="2"/>
<feComposite in2="hardAlpha" operator="arithmetic" k2="-1" k3="1"/>
<feColorMatrix type="matrix" values="0 0 0 0 0 0 0 0 0 0 0 0 0 0 0 0 0 0 0.25 0"/>
<feBlend mode="normal" in2="shape" result="effect1_innerShadow"/>
</filter>
<filter id="filter2_i" x="60.7539" y="12.5479" width="46.5573" height="62.7865" filterUnits="userSpaceOnUse" color-interpolation-filters="sRGB">
<feFlood flood-opacity="0" result="BackgroundImageFix"/>
<feBlend mode="normal" in="SourceGraphic" in2="BackgroundImageFix" result="shape"/>
<feColorMatrix in="SourceAlpha" type="matrix" values="0 0 0 0 0 0 0 0 0 0 0 0 0 0 0 0 0 0 127 0" result="hardAlpha"/>
<feOffset dy="4"/>
<feGaussianBlur stdDeviation="2"/>
<feComposite in2="hardAlpha" operator="arithmetic" k2="-1" k3="1"/>
<feColorMatrix type="matrix" values="0 0 0 0 0 0 0 0 0 0 0 0 0 0 0 0 0 0 0.25 0"/>
<feBlend mode="normal" in2="shape" result="effect1_innerShadow"/>
</filter>
<filter id="filter3_i" x="52.3223" y="0" width="52.4979" height="43.299" filterUnits="userSpaceOnUse" color-interpolation-filters="sRGB">
<feFlood flood-opacity="0" result="BackgroundImageFix"/>
<feBlend mode="normal" in="SourceGraphic" in2="BackgroundImageFix" result="shape"/>
<feColorMatrix in="SourceAlpha" type="matrix" values="0 0 0 0 0 0 0 0 0 0 0 0 0 0 0 0 0 0 127 0" result="hardAlpha"/>
<feOffset dy="4"/>
<feGaussianBlur stdDeviation="2"/>
<feComposite in2="hardAlpha" operator="arithmetic" k2="-1" k3="1"/>
<feColorMatrix type="matrix" values="0 0 0 0 0 0 0 0 0 0 0 0 0 0 0 0 0 0 0.25 0"/>
<feBlend mode="normal" in2="shape" result="effect1_innerShadow"/>
</filter>
<filter id="filter4_d" x="12.4346" y="68.2031" width="32.1897" height="32.8079" filterUnits="userSpaceOnUse" color-interpolation-filters="sRGB">
<feFlood flood-opacity="0" result="BackgroundImageFix"/>
<feColorMatrix in="SourceAlpha" type="matrix" values="0 0 0 0 0 0 0 0 0 0 0 0 0 0 0 0 0 0 127 0"/>
<feOffset/>
<feGaussianBlur stdDeviation="1"/>
<feColorMatrix type="matrix" values="0 0 0 0 0 0 0 0 0 0 0 0 0 0 0 0 0 0 0.25 0"/>
<feBlend mode="normal" in2="BackgroundImageFix" result="effect1_dropShadow"/>
<feBlend mode="normal" in="SourceGraphic" in2="effect1_dropShadow" result="shape"/>
</filter>
</defs>
</svg>
