<svg width="26" height="26" viewBox="0 0 26 26" fill="none" xmlns="http://www.w3.org/2000/svg">
<path d="M23.9671 6.48074V6.98074H24.5278L24.4639 6.42372L23.9671 6.48074ZM2.08999 6.48074L1.59325 6.42372L1.52932 6.98074H2.08999V6.48074ZM2.05713 12.3205H1.55713V12.8205H2.05713V12.3205ZM2.05713 7.48074V6.98074H1.55713V7.48074H2.05713ZM24 12.3205V12.8205H24.5V12.3205H24ZM24 7.48074H24.5V6.98074H24V7.48074ZM2.05713 13.3205V12.8205H1.55713V13.3205H2.05713ZM2.05713 18.1602H1.55713V18.6602H2.05713V18.1602ZM24 13.3205H24.5V12.8205H24V13.3205ZM24 18.1602V18.6602H24.5V18.1602H24ZM2.05965 19.1602V18.6602H1.54366L1.5599 19.176L2.05965 19.1602ZM23.9975 19.1602L24.4972 19.176L24.5135 18.6602H23.9975V19.1602ZM19 1.55713H7.05713V2.55713H19V1.55713ZM24.4639 6.42372C24.1494 3.68427 21.8235 1.55713 19 1.55713V2.55713C21.3095 2.55713 23.2132 4.29734 23.4704 6.53776L24.4639 6.42372ZM2.08999 6.98074H23.9671V5.98074H2.08999V6.98074ZM7.05713 1.55713C4.23364 1.55713 1.90769 3.68427 1.59325 6.42372L2.58673 6.53775C2.84389 4.29734 4.74764 2.55713 7.05713 2.55713V1.55713ZM2.55713 12.3205V7.48074H1.55713V12.3205H2.55713ZM24 11.8205H2.05713V12.8205H24V11.8205ZM23.5 7.48074V12.3205H24.5V7.48074H23.5ZM2.05713 7.98074H24V6.98074H2.05713V7.98074ZM1.55713 13.3205V18.1602H2.55713V13.3205H1.55713ZM24 12.8205H2.05713V13.8205H24V12.8205ZM24.5 18.1602V13.3205H23.5V18.1602H24.5ZM2.05713 18.6602H24V17.6602H2.05713V18.6602ZM1.5599 19.176C1.65297 22.1323 4.07845 24.5 7.05713 24.5V23.5C4.62019 23.5 2.63554 21.5627 2.5594 19.1445L1.5599 19.176ZM7.05713 24.5H19V23.5H7.05713V24.5ZM19 24.5C21.9787 24.5 24.4041 22.1323 24.4972 19.176L23.4977 19.1445C23.4216 21.5627 21.4369 23.5 19 23.5V24.5ZM23.9975 18.6602H2.05965V19.6602H23.9975V18.6602ZM7.05713 0.557129C3.46728 0.557129 0.557129 3.46727 0.557129 7.05713H1.55713C1.55713 4.01956 4.01956 1.55713 7.05713 1.55713V0.557129ZM19 0.557129H7.05713V1.55713H19V0.557129ZM25.5 7.05713C25.5 3.46728 22.5898 0.557129 19 0.557129V1.55713C22.0376 1.55713 24.5 4.01956 24.5 7.05713H25.5ZM25.5 19V7.05713H24.5V19H25.5ZM19 25.5C22.5898 25.5 25.5 22.5898 25.5 19H24.5C24.5 22.0376 22.0376 24.5 19 24.5V25.5ZM7.05713 25.5H19V24.5H7.05713V25.5ZM0.557129 19C0.557129 22.5898 3.46727 25.5 7.05713 25.5V24.5C4.01956 24.5 1.55713 22.0376 1.55713 19H0.557129ZM0.557129 7.05713V19H1.55713V7.05713H0.557129Z" fill="#265FB1"/>
</svg>
