<svg width="157" height="35" viewBox="0 0 157 35" fill="none" xmlns="http://www.w3.org/2000/svg">
<path fill-rule="evenodd" clip-rule="evenodd" d="M29.5221 1.97826C29.5221 0.885698 30.4078 0 31.5004 0H42.1388H45.2568C46.3494 0 47.2351 0.885698 47.2351 1.97826C47.2351 3.07082 46.3494 3.95652 45.2568 3.95652H42.5443C42.4132 3.97237 42.278 3.98022 42.1388 3.98022C40.5557 3.98022 39.3099 4.48605 38.3691 5.48317C37.4259 6.48273 36.9412 7.81659 36.9412 9.51642V14.4529C36.9456 14.6329 36.9474 14.8908 36.9478 15.2174H40.9058C41.9983 15.2174 42.884 16.1031 42.884 17.1957C42.884 18.2882 41.9983 19.1739 40.9058 19.1739H36.9412V31.8866C36.9412 32.617 36.7103 33.2331 36.2277 33.7031C35.7404 34.1777 35.0756 34.3973 34.2761 34.3973C34.2164 34.3973 34.1573 34.3953 34.0988 34.3913H26.8389C25.7463 34.3913 24.8606 33.5056 24.8606 32.4131C24.8606 31.3205 25.7463 30.4348 26.8389 30.4348H30.5457V30.434C31.5294 30.4056 32.3181 29.5992 32.3181 28.6087C32.3181 27.6181 31.5294 26.8117 30.5457 26.7833V26.7826H30.508L30.492 26.7826H27.6568V26.7826H1.97826C0.885697 26.7826 0 25.8969 0 24.8044C0 23.7118 0.885697 22.8261 1.97826 22.8261H30.5457V22.8253C31.5294 22.7969 32.3181 21.9906 32.3181 21C32.3181 20.0094 31.5294 19.2031 30.5456 19.1747V19.1738C29.4632 19.162 28.5894 18.2809 28.5894 17.1957C28.5894 16.1104 29.4632 15.2293 30.5457 15.2175V15.2166C31.5294 15.1882 32.3181 14.3818 32.3181 13.3913C32.3181 12.4007 31.5294 11.5944 30.5457 11.566V11.5653H30.5082L30.492 11.5652H27.6568V11.5653H19.3804C18.2878 11.5653 17.4021 10.6796 17.4021 9.58699C17.4021 8.49443 18.2878 7.60873 19.3804 7.60873H30.858L30.858 7.60865H32.0468C33.0553 7.60865 33.8729 6.79108 33.8729 5.78256C33.8729 4.77404 33.0553 3.95647 32.0468 3.95647H31.4863C30.4002 3.94892 29.5221 3.06614 29.5221 1.97826ZM18.9559 1.97826C18.9559 0.885698 19.8416 0 20.9342 0H24.1934C25.286 0 26.1717 0.885698 26.1717 1.97826C26.1717 3.07082 25.286 3.95652 24.1934 3.95652H20.9342C19.8416 3.95652 18.9559 3.07082 18.9559 1.97826ZM11.9224 15.2174C10.8299 15.2174 9.94417 16.1031 9.94417 17.1957C9.94417 18.2882 10.8299 19.1739 11.9224 19.1739H23.8144C24.9069 19.1739 25.7926 18.2882 25.7926 17.1957C25.7926 16.1031 24.9069 15.2174 23.8144 15.2174H11.9224ZM78.1682 34.0725L78.1712 34.0736L78.1741 34.0746C79.987 34.6925 81.9468 35 84.0511 35C86.1828 35 87.978 34.6788 89.423 34.0202C90.8856 33.3671 92.0012 32.483 92.7499 31.36C93.5252 30.2415 93.9125 28.9854 93.9125 27.6005C93.9125 25.8128 93.2239 24.3043 91.8583 23.094C90.5171 21.8503 88.1337 20.9297 84.7779 20.2933C83.1879 19.9778 81.9962 19.6653 81.1923 19.3582C80.3906 19.0231 79.8945 18.6793 79.6463 18.3473C79.4142 17.9663 79.2978 17.5485 79.2978 17.0875C79.2978 16.7251 79.3929 16.4185 79.5765 16.1564C79.7615 15.8921 80.0481 15.6563 80.4562 15.4573C81.3219 15.0498 82.3832 14.8393 83.6513 14.8393H96.3141V25.0912C96.3141 26.7215 96.6645 28.1987 97.3714 29.5159C98.0765 30.8294 99.0452 31.8789 100.276 32.6583L100.279 32.6598L100.281 32.6612C101.518 33.4141 102.908 33.7886 104.443 33.7886H105.243C106.068 33.7886 106.767 33.5714 107.309 33.1112C107.882 32.6503 108.174 32.0458 108.174 31.3211C108.174 30.6239 107.961 30.0282 107.517 29.5603C107.105 29.0941 106.577 28.8536 105.953 28.8536H104.443C103.597 28.8536 102.883 28.512 102.285 27.7969C101.685 27.0804 101.378 26.1854 101.378 25.0912V14.8393H104.222C104.863 14.8393 105.468 14.7528 105.942 14.3265C106.189 14.1044 106.342 13.8054 106.433 13.5082C106.525 13.209 106.561 12.8919 106.561 12.609C106.561 11.99 106.418 11.407 105.942 10.9795C105.489 10.5723 104.906 10.3802 104.222 10.3802H101.378V4.45461C101.378 3.74868 101.144 3.14867 100.664 2.68132C100.184 2.21411 99.5693 1.9871 98.8459 1.9871C98.1225 1.9871 97.5073 2.21411 97.0276 2.68132C96.5477 3.14867 96.3141 3.74868 96.3141 4.45461V10.3802H83.7089L83.6771 10.3803C82.1553 10.387 80.6905 10.6377 79.2844 11.1327C77.8485 11.6092 76.6623 12.357 75.7354 13.3795C74.7883 14.395 74.3229 15.6826 74.3229 17.2173C74.3229 18.9814 75.0306 20.4764 76.4268 21.6851L76.4294 21.6873C77.8518 22.8919 80.0909 23.7707 83.1026 24.3515L83.1053 24.352L83.1081 24.3525C85.4139 24.7556 86.9334 25.2657 87.7286 25.8533L87.7307 25.8548L87.7327 25.8563C88.5609 26.4478 88.9188 27.1103 88.8934 27.8499C88.8681 28.5896 88.4716 29.2122 87.6208 29.7201L87.6189 29.7212L87.6169 29.7224C86.8004 30.2261 85.566 30.4976 83.8734 30.4976C82.5494 30.4976 81.3485 30.2738 80.2666 29.8309C79.1914 29.3493 78.4365 28.8519 77.9742 28.3487L77.972 28.3463L77.9698 28.344C77.5067 27.8608 76.9371 27.5815 76.2722 27.5148C75.6019 27.4146 74.9429 27.6463 74.3096 28.139C73.7437 28.5614 73.4048 29.1221 73.3044 29.8069L73.3034 29.8133L73.3028 29.8197C73.2336 30.4932 73.4639 31.0976 73.9633 31.6164L73.9668 31.62L73.9703 31.6235C74.9882 32.6147 76.3932 33.4279 78.1682 34.0725ZM50.9307 32.3567C49.1678 31.2615 47.7697 29.7955 46.7383 27.9636L46.7368 27.9611L46.7354 27.9585C45.7322 26.0931 45.2337 23.9957 45.2337 21.6733C45.2337 19.3463 45.7787 17.2454 46.8742 15.3783L46.8761 15.3751C47.9984 13.5139 49.5024 12.0486 51.3853 10.9837C53.3017 9.88766 55.4441 9.34174 57.8049 9.34174C60.1653 9.34174 62.2933 9.88747 64.181 10.9842C66.0636 12.0492 67.553 13.5149 68.6458 15.3767C69.7714 17.2439 70.3317 19.3454 70.3317 21.6733V31.321C70.3317 32.0335 70.0788 32.6457 69.5737 33.1376C69.094 33.6048 68.4787 33.8318 67.7554 33.8318C67.0319 33.8318 66.4066 33.605 65.9004 33.1448L65.8925 33.1377L65.8852 33.13C65.4125 32.6368 65.1791 32.027 65.1791 31.321V30.5144C64.228 31.4824 63.1185 32.2749 61.8524 32.8914L61.8501 32.8925C60.3532 33.6066 58.7069 33.9616 56.9165 33.9616C54.7012 33.9616 52.7042 33.4288 50.934 32.3587L50.9307 32.3567ZM64.6458 25.8266C63.9647 27.0379 63.0319 28.0041 61.8473 28.7252C60.6627 29.4174 59.3152 29.7635 57.8049 29.7635C56.3242 29.7635 54.9767 29.4174 53.7625 28.7252C52.5779 28.0041 51.6302 27.0379 50.9195 25.8266C50.2384 24.5863 49.8978 23.2019 49.8978 21.6733C49.8978 20.1158 50.2384 18.7314 50.9195 17.52C51.6302 16.2798 52.5779 15.3136 53.7625 14.6214C54.9767 13.9003 56.3242 13.5398 57.8049 13.5398C59.3152 13.5398 60.6627 13.9003 61.8473 14.6214C63.0319 15.3136 63.9647 16.2798 64.6458 17.52C65.327 18.7314 65.6675 20.1158 65.6675 21.6733C65.6675 23.2019 65.327 24.5863 64.6458 25.8266ZM111.61 28.0542L111.608 28.0516C110.543 26.1839 110.014 24.055 110.014 21.6733C110.014 19.2636 110.542 17.1336 111.609 15.2931L111.61 15.2917C112.703 13.4284 114.194 11.9757 116.079 10.939C117.968 9.87127 120.14 9.34174 122.585 9.34174C125.002 9.34174 127.159 9.87164 129.047 10.9391C130.932 11.9758 132.408 13.4286 133.472 15.2924C134.569 17.1329 135.112 19.2631 135.112 21.6733C135.112 24.055 134.583 26.1839 133.518 28.0516L133.517 28.0535C132.453 29.8893 130.976 31.3414 129.093 32.4066L129.09 32.4084C127.201 33.4468 125.03 33.9616 122.585 33.9616C120.141 33.9616 117.969 33.4468 116.081 32.4084L116.077 32.4066C114.195 31.3419 112.705 29.8907 111.611 28.0567L111.61 28.0542ZM126.672 28.7252C125.487 29.4174 124.125 29.7635 122.585 29.7635C121.045 29.7635 119.683 29.4174 118.498 28.7252C117.314 28.033 116.381 27.0812 115.7 25.8698C115.019 24.6585 114.678 23.2596 114.678 21.6733C114.678 20.087 115.019 18.6881 115.7 17.4767C116.381 16.2365 117.314 15.2703 118.498 14.5781C119.683 13.8859 121.045 13.5398 122.585 13.5398C124.125 13.5398 125.487 13.8859 126.672 14.5781C127.857 15.2703 128.775 16.2365 129.426 17.4767C130.107 18.6881 130.448 20.087 130.448 21.6733C130.448 23.2596 130.107 24.6585 129.426 25.8698C128.775 27.0812 127.857 28.033 126.672 28.7252ZM146.832 10.4529L146.835 10.4518C148.18 9.85612 149.631 9.55948 151.183 9.55948C152.98 9.55948 154.372 9.84861 155.307 10.4747C155.779 10.7666 156.133 11.1056 156.336 11.5009C156.543 11.9036 156.58 12.3397 156.46 12.7931C156.296 13.4585 155.955 13.9549 155.401 14.2067L155.393 14.2102L155.385 14.2134C154.872 14.4132 154.29 14.4394 153.654 14.3156C151.791 13.9469 150.131 13.9216 148.672 14.2282C147.207 14.5358 146.066 15.1039 145.229 15.9185C144.434 16.7208 144.031 17.7373 144.031 18.9924V31.6253C144.031 32.3937 143.833 33.0258 143.384 33.4635C142.935 33.9008 142.287 34.0928 141.499 34.0928C140.711 34.0928 140.063 33.9008 139.614 33.4634C139.165 33.0258 138.967 32.3937 138.967 31.6253V12.2866C138.967 11.5182 139.165 10.8861 139.614 10.4484C140.063 10.011 140.711 9.81906 141.499 9.81906C142.287 9.81906 142.935 10.011 143.384 10.4484C143.833 10.8861 144.031 11.5182 144.031 12.2866V12.3383C144.835 11.5627 145.77 10.9342 146.832 10.4529Z" fill="url(#paint0_linear)"/>
<defs>
<linearGradient id="paint0_linear" x1="18.3344" y1="38.9566" x2="95.0247" y2="-13.0373" gradientUnits="userSpaceOnUse">
<stop stop-color="#1EE3CF"/>
<stop offset="0.838542" stop-color="#2645B1"/>
</linearGradient>
</defs>
</svg>
