<svg data-v-fde0c5aa="" xmlns="http://www.w3.org/2000/svg" viewBox="0 0 300 300" class="iconLeft">
<!----><defs data-v-fde0c5aa=""><!----></defs>
<defs data-v-fde0c5aa=""><!----></defs>
<g data-v-fde0c5aa="" id="5eac76e2-e6cf-403d-a95d-2a207b415699" fill="#2645B1" transform="matrix(4.216808957886764,0,0,4.216808957886764,125.10428391040178,96.00376201812323)">
<path d="M0.49 17.18L0.49 16.02L2.56 16.02L2.56 9.62L0.35 9.87L0.35 8.64L3.96 8.22L3.96 16.02L5.67 16.02L5.67 17.18L0.49 17.18ZM6.93 12.81L6.93 12.81Q6.93 10.77 7.19 9.84L7.19 9.84L7.19 9.84Q7.45 8.90 8.17 8.56L8.17 8.56L8.17 8.56Q8.89 8.22 10.46 8.22L10.46 8.22L10.46 8.22Q12.03 8.22 12.74 8.55L12.74 8.55L12.74 8.55Q13.45 8.89 13.71 9.83L13.71 9.83L13.71 9.83Q13.97 10.77 13.97 12.81L13.97 12.81L13.97 12.81Q13.97 14.90 13.73 15.82L13.73 15.82L13.73 15.82Q13.48 16.74 12.77 17.07L12.77 17.07L12.77 17.07Q12.05 17.39 10.46 17.39L10.46 17.39L10.46 17.39Q8.86 17.39 8.15 17.07L8.15 17.07L8.15 17.07Q7.43 16.74 7.18 15.81L7.18 15.81L7.18 15.81Q6.93 14.88 6.93 12.81L6.93 12.81ZM8.43 9.41L8.43 15.46L8.43 15.46Q8.43 15.76 8.53 15.92L8.53 15.92L8.53 15.92Q8.64 16.07 8.91 16.14L8.91 16.14L8.91 16.14Q9.18 16.20 9.73 16.20L9.73 16.20L12.47 16.20L12.47 10.15L12.47 10.15Q12.47 9.84 12.36 9.69L12.36 9.69L12.36 9.69Q12.24 9.53 11.94 9.47L11.94 9.47L11.94 9.47Q11.65 9.41 11.09 9.41L11.09 9.41L8.43 9.41ZM19.14 11.14L17.89 11.14L17.89 16.14L17.89 16.14Q18.40 16.20 18.89 16.21L18.89 16.21L18.80 17.16L18.80 17.16Q18.02 17.32 17.53 17.32L17.53 17.32L17.53 17.32Q17.00 17.32 16.74 17.06L16.74 17.06L16.74 17.06Q16.49 16.80 16.49 16.27L16.49 16.27L16.49 11.14L15.51 11.14L15.51 10.18L16.49 10.18L16.49 8.68L17.89 8.33L17.89 10.18L19.14 10.18L19.14 11.14ZM23.65 17.32L23.65 17.32Q22.39 17.32 21.75 17.02L21.75 17.02L21.75 17.02Q21.11 16.72 20.86 15.95L20.86 15.95L20.86 15.95Q20.61 15.18 20.61 13.68L20.61 13.68L20.61 13.68Q20.61 12.18 20.86 11.41L20.86 11.41L20.86 11.41Q21.11 10.64 21.75 10.34L21.75 10.34L21.75 10.34Q22.39 10.04 23.65 10.04L23.65 10.04L23.65 10.04Q24.92 10.04 25.55 10.34L25.55 10.34L25.55 10.34Q26.18 10.64 26.43 11.40L26.43 11.40L26.43 11.40Q26.68 12.17 26.68 13.68L26.68 13.68L26.68 13.68Q26.68 15.18 26.43 15.95L26.43 15.95L26.43 15.95Q26.18 16.72 25.54 17.02L25.54 17.02L25.54 17.02Q24.91 17.32 23.65 17.32L23.65 17.32ZM22.06 16.17L24.56 16.17L24.56 16.17Q24.96 16.17 25.09 16.10L25.09 16.10L25.09 16.10Q25.23 16.03 25.23 15.82L25.23 15.82L25.23 11.19L22.74 11.19L22.74 11.19Q22.33 11.19 22.20 11.26L22.20 11.26L22.20 11.26Q22.06 11.33 22.06 11.54L22.06 11.54L22.06 16.17ZM29.44 10.18L29.93 11.28L29.93 11.28Q30.56 10.72 31.01 10.42L31.01 10.42L31.01 10.42Q31.46 10.11 31.85 9.97L31.85 9.97L31.99 11.34L31.99 11.34Q31.53 11.48 31.03 11.73L31.03 11.73L31.03 11.73Q30.53 11.97 30.18 12.24L30.18 12.24L30.18 17.18L28.78 17.18L28.78 10.18L29.44 10.18Z"></path>
</g>
<defs data-v-fde0c5aa="">
<linearGradient data-v-fde0c5aa="" gradientTransform="rotate(25)" id="c5a816d6-9b02-4640-b1b8-fb7bb0b98b3c" x1="0%" y1="0%" x2="100%" y2="0%">
<stop data-v-fde0c5aa="" offset="0%" stop-color="#000A68" stop-opacity="1"></stop>
<stop data-v-fde0c5aa="" offset="100%" stop-color="#00C4EE" stop-opacity="1"></stop>
</linearGradient></defs>

<g data-v-fde0c5aa="" id="0e25a522-5830-4fb8-ac1b-9d987cc1e270" stroke="none" fill="#2645B1" transform="matrix(0.7452088875364948,0,0,0.7452088875364948,39.059307441863034,113.09751779140991)">
<path d="M39.155 48.586s-19.267-1.801-9.147-13.734C40.122 22.92 39.2 21.557 39.2 21.557s5.079-16.006 6.459-9.322c1.37 6.685 10.837 22.737 10.837 22.737s-.024 1.435 1.471.721c1.488-.718 2.962-.836 6.745-4.845 3.788-4.019 9.154-.985 9.154-.985s4.957-1.711 5.519-1.553c.563.159-3.903 2.538-4.42 3.304-.52.761-3.245 7.729-3.106 9.665.132 1.933-3.091 6.937-4.01 7.208 0 0 8.862 4.627 10.527 8.658 0 0 8.979 5.264 10.146 9.465 1.173 4.195 18.996 15.741 7.799 20.47-11.189 4.733-28.113-4.365-29.362-5.319-1.239-.957-15.848-8.874-20.825-9.516-4.971-.646-7.331-5.709-4.055-11.687 0 0-5.225-.037-6.126.468-.904.504-14.253 13.422-15.281 14.12-1.034.694-13.442 12.968-18.24 4.185C-2.371 70.54 9.17 67.275 9.17 67.275s19.249-8.296 22.304-11.073c3.053-2.776 7.681-7.616 7.681-7.616z"></path></g>
<!----></svg>