<svg width="14" height="15" viewBox="0 0 14 15" fill="none" xmlns="http://www.w3.org/2000/svg">
<path d="M1.78293 10.185C1.78717 10.1384 1.80761 10.0947 1.84069 10.0617L9.47852 2.42383L10.7704 3.71576L12.0624 5.00769L4.42456 12.6455C4.39147 12.6786 4.34784 12.699 4.30124 12.7033L1.77012 12.9334C1.64573 12.9447 1.54152 12.8405 1.55283 12.7161L1.78293 10.185Z" fill="white"/>
<path d="M10.1949 1.71135L10.5839 1.32234C10.9744 0.931817 11.6076 0.931817 11.9981 1.32234L12.5829 1.90717L13.1678 2.49199C13.5583 2.88252 13.5583 3.51568 13.1678 3.90621L12.7788 4.29522L11.4868 3.00328L10.1949 1.71135Z" fill="white"/>
</svg>
