<svg width="34" height="35" viewBox="0 0 34 35" fill="none" xmlns="http://www.w3.org/2000/svg">
<circle cx="17" cy="17" r="16" stroke="black" stroke-width="2"/>
<path d="M17.0234 7.70312C17.4297 7.70312 17.7461 7.82031 17.9727 8.05469C18.207 8.28906 18.3242 8.58594 18.3242 8.94531C18.3242 9.29688 18.207 9.58984 17.9727 9.82422C17.7461 10.0508 17.4297 10.1641 17.0234 10.1641C16.6172 10.1641 16.3008 10.0508 16.0742 9.82422C15.8555 9.58984 15.7461 9.29688 15.7461 8.94531C15.7461 8.58594 15.8555 8.28906 16.0742 8.05469C16.3008 7.82031 16.6172 7.70312 17.0234 7.70312ZM15.9102 25V12.3203H18.1016V25H15.9102Z" fill="black"/>
</svg>
