<svg width="50" height="50" viewBox="0 0 50 50" fill="none" xmlns="http://www.w3.org/2000/svg">
<path d="M25.333 39.8592C23.9407 39.4861 22.9679 38.3022 22.7314 36.8989L29.0661 38.5963C28.1597 39.6933 26.7253 40.2322 25.333 39.8592Z" fill="#265FB1"/>
<path fill-rule="evenodd" clip-rule="evenodd" d="M25.0481 14.0121C25.9896 13.1089 27.3666 12.7056 28.7188 13.0679C30.0714 13.4303 31.0624 14.4686 31.4259 15.7221C34.1403 17.6832 35.6702 21.0335 35.1874 24.5243L33.6459 35.6694C33.458 37.0273 32.1225 37.9133 30.7984 37.5585L14.6703 33.237C13.3462 32.8822 12.6326 31.4471 13.1489 30.1772L17.3864 19.7545C18.7141 16.489 21.7156 14.3523 25.0481 14.0121Z" fill="#265FB1"/>
</svg>
