<svg width="12" height="15" viewBox="0 0 12 15" fill="none" xmlns="http://www.w3.org/2000/svg">
<path d="M3.21429 6.42857V4.5C3.21429 3.08371 4.36942 1.92857 5.78571 1.92857C7.20201 1.92857 8.35714 3.08371 8.35714 4.5V6.42857H3.21429ZM11.5714 7.39286C11.5714 6.86049 11.1395 6.42857 10.6071 6.42857H10.2857V4.5C10.2857 2.02902 8.2567 0 5.78571 0C3.31473 0 1.28571 2.02902 1.28571 4.5V6.42857H0.964286C0.43192 6.42857 0 6.86049 0 7.39286V13.1786C0 13.7109 0.43192 14.1429 0.964286 14.1429H10.6071C11.1395 14.1429 11.5714 13.7109 11.5714 13.1786V7.39286Z" fill="#E2E2E2"/>
</svg>
