<svg width="50" height="50" viewBox="0 0 50 50" fill="none" xmlns="http://www.w3.org/2000/svg">
<mask id="mask0" mask-type="alpha" maskUnits="userSpaceOnUse" x="0" y="0" width="50" height="50">
<circle cx="25" cy="25" r="25" fill="#C4C4C4"/>
<path d="M27.0616 27.8951C30.5924 27.0656 32.7823 23.5309 31.9528 20.0001L19.1665 23.0039C19.3781 23.9048 19.7659 24.7183 20.2847 25.4167C21.7994 27.4556 24.4316 28.513 27.0616 27.8951Z" fill="white"/>
</mask>
<g mask="url(#mask0)">
<path fill-rule="evenodd" clip-rule="evenodd" d="M34.3148 29.6074C34.2931 29.6072 34.2713 29.6071 34.2494 29.6071C31.7634 32.0318 28.3873 33.5357 24.6429 33.5357C20.8984 33.5357 17.5223 32.0318 15.0363 29.6071C15.0144 29.6071 14.9926 29.6072 14.9709 29.6074C6.98416 29.6578 5 38.9594 5 47.0095C5 51.4905 7.94643 55.1429 11.5374 55.1429H37.7483C41.3393 55.1429 44.2857 51.4905 44.2857 47.0095C44.2857 38.9594 42.3016 29.6578 34.3148 29.6074ZM15.828 27.6071C13.9799 25.526 12.8571 22.7864 12.8571 19.7857C12.8571 13.279 18.1362 8 24.6429 8C31.1496 8 36.4286 13.279 36.4286 19.7857C36.4286 22.7864 35.3058 25.526 33.4577 27.6071C33.2739 27.8142 33.0829 28.0147 32.8851 28.2082C30.7596 30.2886 27.8504 31.5714 24.6429 31.5714C21.4353 31.5714 18.5262 30.2886 16.4006 28.2083C16.2028 28.0147 16.0118 27.8142 15.828 27.6071Z" fill="#265FB1"/>
<path d="M34.3148 29.6074L34.2494 29.6071C31.7634 32.0318 28.3873 33.5357 24.6429 33.5357C20.8984 33.5357 17.5223 32.0318 15.0363 29.6071L14.9709 29.6074C6.98416 29.6578 5 38.9594 5 47.0095C5 51.4905 7.94643 55.1429 11.5374 55.1429H37.7483C41.3393 55.1429 44.2857 51.4905 44.2857 47.0095C44.2857 38.9594 42.3016 29.6578 34.3148 29.6074Z" fill="#265FB1"/>
<path d="M12.8571 19.7857C12.8571 22.7864 13.9799 25.526 15.828 27.6071C16.0118 27.8142 16.2028 28.0147 16.4006 28.2083C18.5262 30.2886 21.4353 31.5714 24.6429 31.5714C27.8504 31.5714 30.7596 30.2886 32.8851 28.2082C33.0829 28.0147 33.2739 27.8142 33.4577 27.6071C35.3058 25.526 36.4286 22.7864 36.4286 19.7857C36.4286 13.279 31.1496 8 24.6429 8C18.1362 8 12.8571 13.279 12.8571 19.7857Z" fill="#265FB1"/>
<path d="M26.6919 28.276C30.2228 27.4465 32.4126 23.9118 31.5832 20.3809L18.7969 23.3848C19.0085 24.2856 19.3962 25.0992 19.9151 25.7976C21.4298 27.8365 24.062 28.8938 26.6919 28.276Z" fill="white"/>
</g>
<circle cx="25" cy="25" r="24" stroke="#265FB1" stroke-width="2"/>
</svg>
