<svg width="50" height="50" viewBox="0 0 50 50" fill="none" xmlns="http://www.w3.org/2000/svg">
<path d="M31.6429 27C30.4241 27 29.3069 27.4788 28.4799 28.2478L23.2567 25.6362C23.2712 25.4766 23.2857 25.3025 23.2857 25.1429C23.2857 24.9833 23.2712 24.8092 23.2567 24.6496L28.4799 22.0379C29.3069 22.8069 30.4241 23.2857 31.6429 23.2857C34.2109 23.2857 36.2857 21.2109 36.2857 18.6429C36.2857 16.0748 34.2109 14 31.6429 14C29.0748 14 27 16.0748 27 18.6429C27 18.8025 27.0145 18.9766 27.029 19.1362L21.8058 21.7478C20.9788 20.9788 19.8616 20.5 18.6429 20.5C16.0748 20.5 14 22.5748 14 25.1429C14 27.7109 16.0748 29.7857 18.6429 29.7857C19.8616 29.7857 20.9788 29.3069 21.8058 28.5379L27.029 31.1496C27.0145 31.3092 27 31.4833 27 31.6429C27 34.2109 29.0748 36.2857 31.6429 36.2857C34.2109 36.2857 36.2857 34.2109 36.2857 31.6429C36.2857 29.0748 34.2109 27 31.6429 27Z" fill="#265FB1"/>
</svg>
