<svg width="26" height="26" viewBox="0 0 26 26" fill="none" xmlns="http://www.w3.org/2000/svg">
<path d="M16.8242 2.05664H17.3242V1.55664H16.8242V2.05664ZM9.64783 2.05664V1.55664H9.14783V2.05664H9.64783ZM16.8242 6.48057V6.98057H17.3242V6.48057H16.8242ZM9.64783 6.48057H9.14783V6.98057H9.64783V6.48057ZM8.64783 2.05664H9.14783V1.55664H8.64783V2.05664ZM2.08922 6.48057L1.59248 6.42359L1.52859 6.98057H2.08922V6.48057ZM8.64783 6.48057V6.98057H9.14783V6.48057H8.64783ZM2.0564 7.48057V6.98057H1.5564V7.48057H2.0564ZM8.64783 7.48057H9.14783V6.98057H8.64783V7.48057ZM2.0564 12.3205H1.5564V12.8205H2.0564V12.3205ZM8.64783 12.3205V12.8205H9.14783V12.3205H8.64783ZM2.0564 13.3205V12.8205H1.5564V13.3205H2.0564ZM2.0564 18.16H1.5564V18.66H2.0564V18.16ZM8.64783 13.3205H9.14783V12.8205H8.64783V13.3205ZM8.64783 18.16V18.66H9.14783V18.16H8.64783ZM2.0589 19.16V18.66H1.54296L1.55915 19.1756L2.0589 19.16ZM8.64783 24.0002V24.5002H9.14783V24.0002H8.64783ZM8.64783 19.16H9.14783V18.66H8.64783V19.16ZM9.64783 19.16V18.66H9.14783V19.16H9.64783ZM9.64783 24.0002H9.14783V24.5002H9.64783V24.0002ZM16.8242 24.0002V24.5002H17.3242V24.0002H16.8242ZM16.8242 19.16H17.3242V18.66H16.8242V19.16ZM17.8242 19.16V18.66H17.3242V19.16H17.8242ZM17.8242 24.0002H17.3242V24.5002H17.8242V24.0002ZM23.9974 19.16L24.4972 19.1756L24.5134 18.66H23.9974V19.16ZM17.8242 18.16H17.3242V18.66H17.8242V18.16ZM24 18.16V18.66H24.5V18.16H24ZM17.8242 13.3205V12.8205H17.3242V13.3205H17.8242ZM24 13.3205H24.5V12.8205H24V13.3205ZM9.64783 18.16H9.14783V18.66H9.64783V18.16ZM16.8242 18.16V18.66H17.3242V18.16H16.8242ZM9.64783 13.3205V12.8205H9.14783V13.3205H9.64783ZM16.8242 13.3205H17.3242V12.8205H16.8242V13.3205ZM24 12.3205V12.8205H24.5V12.3205H24ZM17.8242 12.3205H17.3242V12.8205H17.8242V12.3205ZM24 7.48057H24.5V6.98057H24V7.48057ZM17.8242 7.48057V6.98057H17.3242V7.48057H17.8242ZM16.8242 12.3205V12.8205H17.3242V12.3205H16.8242ZM9.64783 12.3205H9.14783V12.8205H9.64783V12.3205ZM16.8242 7.48057H17.3242V6.98057H16.8242V7.48057ZM9.64783 7.48057V6.98057H9.14783V7.48057H9.64783ZM17.8242 2.05664V1.55664H17.3242V2.05664H17.8242ZM17.8242 6.48057H17.3242V6.98057H17.8242V6.48057ZM23.9671 6.48057V6.98057H24.5278L24.4639 6.42359L23.9671 6.48057ZM16.8242 1.55664H9.64783V2.55664H16.8242V1.55664ZM17.3242 6.48057V2.05664H16.3242V6.48057H17.3242ZM9.64783 6.98057H16.8242V5.98057H9.64783V6.98057ZM9.14783 2.05664V6.48057H10.1478V2.05664H9.14783ZM7.0564 2.55664H8.64783V1.55664H7.0564V2.55664ZM2.58597 6.53756C2.84299 4.297 4.74681 2.55664 7.0564 2.55664V1.55664C4.23279 1.55664 1.90676 3.68397 1.59248 6.42359L2.58597 6.53756ZM8.64783 5.98057H2.08922V6.98057H8.64783V5.98057ZM8.14783 2.05664V6.48057H9.14783V2.05664H8.14783ZM2.0564 7.98057H8.64783V6.98057H2.0564V7.98057ZM2.5564 12.3205V7.48057H1.5564V12.3205H2.5564ZM8.64783 11.8205H2.0564V12.8205H8.64783V11.8205ZM8.14783 7.48057V12.3205H9.14783V7.48057H8.14783ZM1.5564 13.3205V18.16H2.5564V13.3205H1.5564ZM8.64783 12.8205H2.0564V13.8205H8.64783V12.8205ZM9.14783 18.16V13.3205H8.14783V18.16H9.14783ZM2.0564 18.66H8.64783V17.66H2.0564V18.66ZM1.55915 19.1756C1.65195 22.1322 4.07754 24.5002 7.0564 24.5002V23.5002C4.61932 23.5002 2.63457 21.5627 2.55865 19.1443L1.55915 19.1756ZM7.0564 24.5002H8.64783V23.5002H7.0564V24.5002ZM9.14783 24.0002V19.16H8.14783V24.0002H9.14783ZM8.64783 18.66H2.0589V19.66H8.64783V18.66ZM9.14783 19.16V24.0002H10.1478V19.16H9.14783ZM9.64783 24.5002H16.8242V23.5002H9.64783V24.5002ZM17.3242 24.0002V19.16H16.3242V24.0002H17.3242ZM16.8242 18.66H9.64783V19.66H16.8242V18.66ZM17.3242 19.16V24.0002H18.3242V19.16H17.3242ZM17.8242 24.5002H19V23.5002H17.8242V24.5002ZM19 24.5002C21.9788 24.5002 24.4044 22.1322 24.4972 19.1756L23.4977 19.1443C23.4218 21.5627 21.437 23.5002 19 23.5002V24.5002ZM23.9974 18.66H17.8242V19.66H23.9974V18.66ZM17.8242 18.66H24V17.66H17.8242V18.66ZM17.3242 13.3205V18.16H18.3242V13.3205H17.3242ZM24 12.8205H17.8242V13.8205H24V12.8205ZM24.5 18.16V13.3205H23.5V18.16H24.5ZM9.64783 18.66H16.8242V17.66H9.64783V18.66ZM9.14783 13.3205V18.16H10.1478V13.3205H9.14783ZM16.8242 12.8205H9.64783V13.8205H16.8242V12.8205ZM17.3242 18.16V13.3205H16.3242V18.16H17.3242ZM24 11.8205H17.8242V12.8205H24V11.8205ZM23.5 7.48057V12.3205H24.5V7.48057H23.5ZM17.8242 7.98057H24V6.98057H17.8242V7.98057ZM18.3242 12.3205V7.48057H17.3242V12.3205H18.3242ZM16.8242 11.8205H9.64783V12.8205H16.8242V11.8205ZM16.3242 7.48057V12.3205H17.3242V7.48057H16.3242ZM9.64783 7.98057H16.8242V6.98057H9.64783V7.98057ZM10.1478 12.3205V7.48057H9.14783V12.3205H10.1478ZM17.3242 2.05664V6.48057H18.3242V2.05664H17.3242ZM18.9999 1.55664H17.8242V2.55664H18.9999V1.55664ZM24.4639 6.42359C24.1496 3.68397 21.8236 1.55664 18.9999 1.55664V2.55664C21.3095 2.55664 23.2134 4.297 23.4704 6.53756L24.4639 6.42359ZM17.8242 6.98057H23.9671V5.98057H17.8242V6.98057ZM7.0564 0.556641C3.46654 0.556641 0.556396 3.46679 0.556396 7.05664H1.5564C1.5564 4.01908 4.01883 1.55664 7.0564 1.55664V0.556641ZM18.9999 0.556641H7.0564V1.55664H18.9999V0.556641ZM25.5 7.05664C25.5 3.46679 22.5898 0.556641 18.9999 0.556641V1.55664C22.0375 1.55664 24.5 4.01907 24.5 7.05664H25.5ZM25.5 19.0002V7.05664H24.5V19.0002H25.5ZM19 25.5002C22.5898 25.5002 25.5 22.59 25.5 19.0002H24.5C24.5 22.0378 22.0375 24.5002 19 24.5002V25.5002ZM7.0564 25.5002H19V24.5002H7.0564V25.5002ZM0.556396 19.0002C0.556396 22.59 3.46655 25.5002 7.0564 25.5002V24.5002C4.01883 24.5002 1.5564 22.0378 1.5564 19.0002H0.556396ZM0.556396 7.05664V19.0002H1.5564V7.05664H0.556396Z" fill="#265FB1"/>
</svg>
