<svg width="15" height="17" viewBox="0 0 15 17" fill="none" xmlns="http://www.w3.org/2000/svg">
<path fill-rule="evenodd" clip-rule="evenodd" d="M0.000138149 3.42456C0.000138149 3.0663 0.296489 2.77588 0.662057 2.77588H14.1946C14.5602 2.77588 14.8565 3.0663 14.8565 3.42456C14.8565 3.78282 14.5602 4.07324 14.1946 4.07324H0.662057C0.296489 4.07324 0.000138149 3.78282 0.000138149 3.42456ZM0.522172 4.9528C0.879482 4.87709 1.23177 5.09957 1.30903 5.44974L3.54964 15.6053H11.307L13.5476 5.44974C13.6249 5.09957 13.9772 4.87709 14.3345 4.9528C14.6918 5.02851 14.9188 5.37375 14.8416 5.72391L12.4881 16.3911C12.4222 16.6896 12.1528 16.9027 11.8411 16.9027H3.01554C2.70388 16.9027 2.43444 16.6896 2.36858 16.3911L0.0150882 5.72391C-0.0621683 5.37375 0.164861 5.02851 0.522172 4.9528Z" fill="#265FB1"/>
<path fill-rule="evenodd" clip-rule="evenodd" d="M3.67773 0.973876C3.67773 0.615619 3.97409 0.325195 4.33965 0.325195H10.444C10.8096 0.325195 11.1059 0.615619 11.1059 0.973876C11.1059 1.33213 10.8096 1.62256 10.444 1.62256H4.33965C3.97409 1.62256 3.67773 1.33213 3.67773 0.973876Z" fill="#265FB1"/>
<path fill-rule="evenodd" clip-rule="evenodd" d="M4.78303 6.3124C4.98346 6.28027 5.17252 6.41345 5.20531 6.60987L5.84331 13.4571C5.8761 13.6535 5.7402 13.8387 5.53977 13.8709C5.33934 13.903 5.15028 13.7698 5.1175 13.5734L4.47949 6.72623C4.4467 6.52981 4.5826 6.34453 4.78303 6.3124ZM10.0736 6.3124C10.2741 6.34453 10.41 6.52981 10.3772 6.72623L9.73917 13.5734C9.70638 13.7698 9.51732 13.903 9.3169 13.8709C9.11647 13.8387 8.98057 13.6535 9.01335 13.4571L9.65136 6.60987C9.68415 6.41345 9.87321 6.28027 10.0736 6.3124ZM7.35479 6.30767C7.55788 6.30767 7.72252 6.46902 7.72252 6.66805V13.5152C7.72252 13.7143 7.55788 13.8756 7.35479 13.8756C7.15169 13.8756 6.98705 13.7143 6.98705 13.5152V6.66805C6.98705 6.46902 7.15169 6.30767 7.35479 6.30767Z" fill="#265FB1"/>
</svg>
