<svg width="55" height="55" viewBox="0 0 55 55" fill="none" xmlns="http://www.w3.org/2000/svg">
<g filter="url(#filter0_d)">
<circle cx="25.5" cy="25.5" r="19.5" fill="#F97575"/>
</g>
<path fill-rule="evenodd" clip-rule="evenodd" d="M18.0001 20.0992C18.0001 19.741 18.2965 19.4506 18.6621 19.4506H32.1946C32.5602 19.4506 32.8565 19.741 32.8565 20.0992C32.8565 20.4575 32.5602 20.7479 32.1946 20.7479H18.6621C18.2965 20.7479 18.0001 20.4575 18.0001 20.0992ZM18.5222 21.6275C18.8795 21.5518 19.2318 21.7743 19.309 22.1244L21.5496 32.28H29.307L31.5476 22.1244C31.6249 21.7743 31.9772 21.5518 32.3345 21.6275C32.6918 21.7032 32.9188 22.0484 32.8416 22.3986L30.4881 33.0658C30.4222 33.3643 30.1528 33.5774 29.8411 33.5774H21.0155C20.7039 33.5774 20.4344 33.3643 20.3686 33.0658L18.0151 22.3986C17.9378 22.0484 18.1649 21.7032 18.5222 21.6275Z" fill="white"/>
<path fill-rule="evenodd" clip-rule="evenodd" d="M21.6777 17.6487C21.6777 17.2904 21.9741 17 22.3397 17H28.444C28.8096 17 29.1059 17.2904 29.1059 17.6487C29.1059 18.0069 28.8096 18.2974 28.444 18.2974H22.3397C21.9741 18.2974 21.6777 18.0069 21.6777 17.6487Z" fill="white"/>
<path fill-rule="evenodd" clip-rule="evenodd" d="M22.783 22.9871C22.9835 22.955 23.1725 23.0882 23.2053 23.2846L23.8433 30.1318C23.8761 30.3282 23.7402 30.5135 23.5398 30.5456C23.3393 30.5777 23.1503 30.4445 23.1175 30.2481L22.4795 23.4009C22.4467 23.2045 22.5826 23.0192 22.783 22.9871ZM28.0736 22.9871C28.2741 23.0192 28.41 23.2045 28.3772 23.4009L27.7392 30.2481C27.7064 30.4445 27.5173 30.5777 27.3169 30.5456C27.1165 30.5135 26.9806 30.3282 27.0134 30.1318L27.6514 23.2846C27.6841 23.0882 27.8732 22.955 28.0736 22.9871ZM25.3548 22.9824C25.5579 22.9824 25.7225 23.1437 25.7225 23.3428V30.1899C25.7225 30.389 25.5579 30.5503 25.3548 30.5503C25.1517 30.5503 24.9871 30.389 24.9871 30.1899V23.3428C24.9871 23.1437 25.1517 22.9824 25.3548 22.9824Z" fill="white"/>
<defs>
<filter id="filter0_d" x="0" y="0" width="55" height="55" filterUnits="userSpaceOnUse" color-interpolation-filters="sRGB">
<feFlood flood-opacity="0" result="BackgroundImageFix"/>
<feColorMatrix in="SourceAlpha" type="matrix" values="0 0 0 0 0 0 0 0 0 0 0 0 0 0 0 0 0 0 127 0"/>
<feOffset dx="2" dy="2"/>
<feGaussianBlur stdDeviation="4"/>
<feColorMatrix type="matrix" values="0 0 0 0 0 0 0 0 0 0 0 0 0 0 0 0 0 0 0.08 0"/>
<feBlend mode="normal" in2="BackgroundImageFix" result="effect1_dropShadow"/>
<feBlend mode="normal" in="SourceGraphic" in2="effect1_dropShadow" result="shape"/>
</filter>
</defs>
</svg>
